<?xml version="1.0" standalone="no"?>
<!DOCTYPE svg PUBLIC "-//W3C//DTD SVG 20010904//EN"
 "http://www.w3.org/TR/2001/REC-SVG-20010904/DTD/svg10.dtd">
<svg version="1.0" xmlns="http://www.w3.org/2000/svg"
 width="593.000000pt" height="593.000000pt" viewBox="0 0 593.000000 593.000000"
 preserveAspectRatio="xMidYMid meet">
<metadata>
Created by potrace 1.11, written by Peter Selinger 2001-2013
</metadata>
<g transform="translate(0.000000,593.000000) scale(0.100000,-0.100000)"
fill="#000000" stroke="none">
<path d="M2885 5834 c-50 -27 -1594 -1573 -1616 -1619 -24 -51 -24 -119 0
-170 13 -27 191 -212 545 -565 289 -289 526 -532 526 -540 0 -8 -238 -253
-530 -545 -365 -365 -534 -542 -545 -567 -21 -52 -19 -131 4 -176 25 -47 364
-384 411 -408 48 -24 125 -23 175 3 23 13 254 236 555 537 483 484 517 516
550 516 33 0 67 -33 565 -530 365 -365 542 -534 567 -545 50 -20 114 -19 163
4 48 23 409 383 424 424 16 41 13 122 -4 165 -11 25 -182 203 -550 572 -294
294 -535 540 -535 545 0 5 240 250 534 545 294 294 541 549 550 567 22 45 21
135 -3 181 -25 47 -364 384 -410 407 -37 19 -109 24 -156 12 -21 -6 -190 -168
-576 -553 -300 -299 -550 -544 -555 -544 -5 0 -139 130 -298 289 l-289 289 31
39 c17 21 256 263 532 538 276 275 510 517 521 537 23 45 25 124 4 176 -21 49
-368 396 -418 417 -47 19 -133 19 -172 -1z"/>
</g>
</svg>
