<svg fill="none" xmlns="http://www.w3.org/2000/svg" viewBox="0 0 140 139"><g clip-path="url(#clip0)"><path d="M80.1866 76.4199H66.0013V138.95h14.1853V76.4199z" fill="url(#paint0_linear)"/><path d="M79.2524 76.4199H67.3068v61.4111h11.9456V76.4199z" fill="#ECEFF1"/><path d="M113.187 27.7016H49.3016c-2.196.056-4.3602.5383-6.3721 1.42-6.4942 2.8782-10.274 7.3957-11.3414 17.4143v23.1459l-16.9282-.1791c-3.4043 0-4.649 5.3523-4.649 8.9701H124.361V39.5747c0-6.557-4.996-11.8731-11.174-11.8731z" fill="url(#paint1_linear)"/><path d="M51.6271 30.128h63.2979c2.057 0 4.029.817 5.483 2.2712 1.454 1.4541 2.271 3.4264 2.271 5.4829v38.5378H51.6271V30.128z" fill="#E15756"/><path d="M50.1308 30.128c4.5544 0 8.9222 1.8092 12.1426 5.0297 3.2204 3.2204 5.0296 7.5882 5.0296 12.1425v20.7157c0 2.2289-.8854 4.3665-2.4615 5.9425-1.5761 1.5761-3.7137 2.4615-5.9426 2.4615H41.3627c-2.2289 0-4.3665-.8854-5.9426-2.4615-1.5761-1.576-2.4615-3.7136-2.4615-5.9425V47.3002c0-4.5543 1.8092-8.9221 5.0296-12.1425 3.2204-3.2205 7.5883-5.0297 12.1426-5.0297z" fill="#E15756"/><path opacity=".2" d="M50.1308 30.128c4.5544 0 8.9222 1.8092 12.1426 5.0297 3.2204 3.2204 5.0296 7.5882 5.0296 12.1425v20.7157c0 2.2289-.8854 4.3665-2.4615 5.9425-1.5761 1.5761-3.7137 2.4615-5.9426 2.4615H41.3627c-2.2289 0-4.3665-.8854-5.9426-2.4615-1.5761-1.576-2.4615-3.7136-2.4615-5.9425V47.3002c0-4.5543 1.8092-8.9221 5.0296-12.1425 3.2204-3.2205 7.5883-5.0297 12.1426-5.0297z" fill="#000"/><path d="M95.8663 23.9694H81.681V47.487h6.4389V34.5121h7.7464V23.9694z" fill="url(#paint2_linear)"/><path d="M94.7454 23.9694H82.7997v21.6515h4.4794V33.6753h7.4663v-9.7059z" fill="#FFCC80"/><path d="M33.0977 38.9653l-1.766 14.509L54.94 56.348l1.7661-14.509-23.6084-2.8737z" fill="url(#paint3_linear)"/><path d="M33.3436 39.3612l-1.6482 13.5402 22.808 2.7762 1.6482-13.5402-22.808-2.7762z" fill="#FAF8E4"/><g opacity=".6" fill="#E15756"><path opacity=".6" d="M33.942 42.6642l2.9025.3533.2615-2.1476-2.9026-.3533-.2614 2.1476zM35.8139 47.1311l11.1428 1.3563.0848-.6963-11.1429-1.3563-.0847.6963zM38.6485 49.008l8.1249.989.0564-.4636-8.1249-.989-.0564.4636z"/></g><path d="M42.717 42.1569l-1.766 14.509 23.6083 2.8737 1.7661-14.5091-23.6084-2.8736z" fill="url(#paint4_linear)"/><path d="M42.9629 42.5546l-1.6481 13.5402 22.8079 2.7763 1.6482-13.5402-22.808-2.7763z" fill="#FAF8E4"/><g opacity=".6" fill="#E15756"><path opacity=".6" d="M43.5627 45.858l2.9026.3533.2614-2.1476-2.9026-.3533-.2614 2.1476zM45.4347 50.3249l11.1428 1.3563.0848-.6963-11.1429-1.3563-.0847.6963zM48.2656 52.2016l8.1249.989.0564-.4636-8.1249-.989-.0564.4636z"/></g><path d="M22.2784 43.5209l-2.3939 19.667 32.0001 3.8951 2.3939-19.667-32.0001-3.8951z" fill="url(#paint5_linear)"/><path d="M22.6132 44.0545l-2.2343 18.3557 30.9158 3.7631 2.2343-18.3557-30.9158-3.7631z" fill="#fff"/><g opacity=".6" fill="#E15756"><path opacity=".6" d="M23.4242 48.5333l3.9338.4788.3542-2.9101-3.9338-.4789-.3542 2.9102zM25.9587 54.5901l15.105 1.8386.1149-.9442-15.105-1.8386-.1149.9442zM29.8022 57.1329l11.0143 1.3407.0767-.6301-11.0143-1.3407-.0767.6301z"/></g><path d="M35.318 47.8469l-2.3939 19.6669 32.0001 3.8951 2.3939-19.6669-32.0001-3.8951z" fill="url(#paint6_linear)"/><path d="M35.6509 48.3841l-2.2343 18.3557 30.9159 3.7631 2.2343-18.3557-30.9159-3.7631z" fill="#fff"/><g opacity=".6" fill="#E15756"><path opacity=".6" d="M36.463 52.8622l3.9338.4788.3542-2.9101-3.9338-.4789-.3542 2.9102zM38.9975 58.9189l15.105 1.8386.115-.9441-15.105-1.8387-.115.9442zM42.8408 61.4617l11.0142 1.3407.0767-.6301-11.0142-1.3407-.0767.6301z"/></g><path opacity=".2" d="M49.9478 30.3148c-2.2464-.0017-4.4712.4387-6.5475 1.2962.8087-.116 1.6247-.1746 2.4417-.1754 2.2551 0 4.4881.4442 6.5715 1.3072s3.9765 2.1279 5.5711 3.7225c1.5945 1.5945 2.8594 3.4876 3.7224 5.571.863 2.0834 1.3072 4.3164 1.3072 6.5715v27.2574h4.1057V47.487c0-4.5543-1.8092-8.9221-5.0296-12.1425-3.2204-3.2205-7.5882-5.0297-12.1425-5.0297z" fill="#000"/><path d="M18.0299 70.4462h49.2769v5.9737H12.0562c0-1.5843.6293-3.1038 1.7496-4.2241 1.1203-1.1203 2.6398-1.7496 4.2241-1.7496z" fill="#E15756"/><path opacity=".2" d="M18.0299 70.4462h49.2769v5.9737H12.0562c0-1.5843.6293-3.1038 1.7496-4.2241 1.1203-1.1203 2.6398-1.7496 4.2241-1.7496z" fill="#fff"/><path d="M125.302 13.4534l-.566.2763.065-.1162-.05.0152.071-.0514L132.45 0l3.9 3.32617 3.347 3.09743-.96.46891 1.078 1.90421-14.513 4.65668z" fill="url(#paint7_linear)"/><path d="M135.965 3.68071l3.057 2.8363-13.861 6.89059 7.377-9.45432 3.427-.27257z" fill="#E15756"/><path opacity=".2" d="M135.965 3.68071l3.057 2.8363-13.861 6.89059 7.377-9.45432 3.427-.27257z" fill="#000"/><path d="M132.397.63855l-7.236 12.76905 10.804-9.72689-3.568-3.04216z" fill="#E15756"/><path d="M139.112 8.71094l-13.936 4.60326 11.649-8.69568 2.287 4.09242z" fill="#E15756"/><path d="M23.1917 16.5775l.9111.141-.141-.1334h.0781l-.122-.0419L7.36141.842499 3.34332 7.18414 0 12.9692l1.54776.2402-.686196 3.1336 22.330136.2345z" fill="url(#paint8_linear)"/><path d="M4.03712 7.5139L.983521 12.8072 23.3689 16.4517 8.95108 6.41217 4.03712 7.5139z" fill="#E15756"/><path opacity=".2" d="M4.03712 7.5139L.983521 12.8072 23.3689 16.4517 8.95108 6.41217 4.03712 7.5139z" fill="#000"/><path d="M7.71394 1.71359L23.3689 16.4517 4.03705 7.5139l3.67689-5.80031z" fill="#E15756"/><path d="M1.8089 15.918l21.4991.4117L3.23848 9.20081 1.8089 15.918z" fill="#E15756"/></g><defs><linearGradient id="paint0_linear" x1="73.0939" y1="138.95" x2="73.0939" y2="76.4199" gradientUnits="userSpaceOnUse"><stop stop-color="gray" stop-opacity=".25"/><stop offset=".54" stop-color="gray" stop-opacity=".12"/><stop offset="1" stop-color="gray" stop-opacity=".1"/></linearGradient><linearGradient id="paint1_linear" x1="27255" y1="18397.8" x2="95859.1" y2="18397.8" gradientUnits="userSpaceOnUse"><stop stop-color="gray" stop-opacity=".25"/><stop offset=".54" stop-color="gray" stop-opacity=".12"/><stop offset="1" stop-color="gray" stop-opacity=".1"/></linearGradient><linearGradient id="paint2_linear" x1="6688.19" y1="5882.92" x2="6688.19" y2="2981.31" gradientUnits="userSpaceOnUse"><stop stop-color="gray" stop-opacity=".25"/><stop offset=".54" stop-color="gray" stop-opacity=".12"/><stop offset="1" stop-color="gray" stop-opacity=".1"/></linearGradient><linearGradient id="paint3_linear" x1="-4910.01" y1="8592.92" x2="-4689.66" y2="6782.63" gradientUnits="userSpaceOnUse"><stop stop-color="gray" stop-opacity=".25"/><stop offset=".54" stop-color="gray" stop-opacity=".12"/><stop offset="1" stop-color="gray" stop-opacity=".1"/></linearGradient><linearGradient id="paint4_linear" x1="-4194" y1="8935.56" x2="-3973.65" y2="7125.27" gradientUnits="userSpaceOnUse"><stop stop-color="gray" stop-opacity=".25"/><stop offset=".54" stop-color="gray" stop-opacity=".12"/><stop offset="1" stop-color="gray" stop-opacity=".1"/></linearGradient><linearGradient id="paint5_linear" x1="-7495.29" y1="13416.7" x2="-7090.43" y2="10090.7" gradientUnits="userSpaceOnUse"><stop stop-color="gray" stop-opacity=".25"/><stop offset=".54" stop-color="gray" stop-opacity=".12"/><stop offset="1" stop-color="gray" stop-opacity=".1"/></linearGradient><linearGradient id="paint6_linear" x1="-6174.86" y1="14045.2" x2="-5770.01" y2="10719.1" gradientUnits="userSpaceOnUse"><stop stop-color="gray" stop-opacity=".25"/><stop offset=".54" stop-color="gray" stop-opacity=".12"/><stop offset="1" stop-color="gray" stop-opacity=".1"/></linearGradient><linearGradient id="paint7_linear" x1="-2185.2" y1="10484.3" x2="-2804.49" y2="9954.59" gradientUnits="userSpaceOnUse"><stop stop-color="gray" stop-opacity=".25"/><stop offset=".54" stop-color="gray" stop-opacity=".12"/><stop offset="1" stop-color="gray" stop-opacity=".1"/></linearGradient><linearGradient id="paint8_linear" x1="936.989" y1="12092.6" x2="1675.93" y2="10926.4" gradientUnits="userSpaceOnUse"><stop stop-color="gray" stop-opacity=".25"/><stop offset=".54" stop-color="gray" stop-opacity=".12"/><stop offset="1" stop-color="gray" stop-opacity=".1"/></linearGradient><clipPath id="clip0"><path fill="#fff" d="M0 0h139.815v138.95H0z"/></clipPath></defs></svg>