<svg width="519" height="373" viewBox="0 0 519 373" fill="none" xmlns="http://www.w3.org/2000/svg">
<path d="M519 155C519 245.5 421.5 224.5 395 269.5C368.5 314.5 325.096 372.5 239.5 372.5C78.2329 372.5 0 314.561 0 203C0 143.789 0 88.5 60 44C124.815 -4.07109 216.325 0.999998 292 0.999998C453.267 0.999998 519 43.4385 519 155Z" fill="#F9EEED"/>
<path d="M42.3637 244.424H37V289.848C37 289.848 71.6205 301.082 105.266 289.848V244.424H42.3637Z" fill="#E6E6E6"/>
<path d="M70.6453 249.797C89.227 249.797 104.291 247.501 104.291 244.669C104.291 241.836 89.227 239.54 70.6453 239.54C52.0635 239.54 37 241.836 37 244.669C37 247.501 52.0635 249.797 70.6453 249.797Z" fill="#E6E6E6"/>
<path opacity="0.1" d="M70.6453 249.797C89.227 249.797 104.291 247.501 104.291 244.669C104.291 241.836 89.227 239.54 70.6453 239.54C52.0635 239.54 37 241.836 37 244.669C37 247.501 52.0635 249.797 70.6453 249.797Z" fill="black"/>
<path d="M82.4839 134.041C82.4839 134.041 103.133 134.604 106.543 135.846C109.953 137.089 111.478 145.976 111.478 145.976L95.4457 151.024L83.4544 150.344L74.4297 150.982L79.4688 137.763L82.4839 134.041Z" fill="#2F2E41"/>
<path d="M83.3744 127.255C83.3744 127.255 84.733 132.51 81.7179 136.232C78.7027 139.953 94.6796 153.214 94.6796 153.214L103.108 151.763C103.108 151.763 101.251 135.614 103.746 131.524C106.241 127.435 83.3744 127.255 83.3744 127.255Z" fill="#9F616A"/>
<path d="M139.429 280.923L120.832 305.626L133.524 313.049L150.991 284.423L139.429 280.923Z" fill="#9F616A"/>
<path d="M126.384 306.043C126.384 306.043 119.536 298.073 119.841 299.85C120.146 301.627 114.968 316.701 119.786 318.159C124.603 319.617 165.914 323.484 166.483 318.811C167.051 314.139 154.158 310.868 154.158 310.868C154.158 310.868 146.499 303.495 144.801 304.245C143.103 304.995 126.384 306.043 126.384 306.043Z" fill="#2F2E41"/>
<path d="M135.256 304.516L150.11 329.865L161.326 323.359L146.347 302.607L135.256 304.516Z" fill="#9F616A"/>
<path d="M158.705 244.209L154.297 250.458C154.297 250.458 133.281 279.694 135.513 282.055C137.745 284.416 147.04 293.337 151.767 291.609C156.494 289.88 173.289 259.997 173.289 259.997L168.908 242.452L158.705 244.209Z" fill="#D0CDE1"/>
<path d="M68.1742 238.294C68.1742 238.294 72.8807 247.091 84.8096 250.069C96.7386 253.048 109.201 259.136 109.645 259.06C110.088 258.984 111.343 258.31 111.648 260.088C111.953 261.865 115.225 264.962 115.225 264.962C115.225 264.962 128.401 309.813 133.434 309.862C138.466 309.91 148.807 306.3 149.022 304.891C149.237 303.481 133.614 257.678 133.461 256.79L131.631 246.125C131.631 246.125 152.294 249.43 154.221 250.013C156.148 250.596 173.289 259.997 173.289 259.997C173.289 259.997 190.763 247.382 174.419 234.641C158.074 221.901 129.981 212.556 129.981 212.556L119.903 209.716L111.12 209.191L109.826 204.223L89.0238 205.426L67.3147 214.653L68.1742 238.294Z" fill="#D0CDE1"/>
<path d="M95.6292 137.716C104.578 137.716 111.833 130.449 111.833 121.485C111.833 112.521 104.578 105.254 95.6292 105.254C86.6799 105.254 79.425 112.521 79.425 121.485C79.425 130.449 86.6799 137.716 95.6292 137.716Z" fill="#9F616A"/>
<path d="M80.9694 134.531L82.9183 134.195C82.9183 134.195 86.4383 147.771 97.3276 150.014C97.3276 150.014 102.701 143.566 102.471 142.478C102.242 141.39 106.727 135.586 109.111 138.835C111.495 142.085 108.529 199.323 110.532 200.35C112.535 201.378 116.833 202.468 113.374 206.266C109.915 210.063 96.1771 215.174 93.1343 213.41C90.0914 211.647 83.8739 196.705 81.1845 191.679C78.4951 186.652 74.1906 169.551 74.1906 169.551C74.1906 169.551 68.694 150.826 72.0765 146.584C75.459 142.342 80.9694 134.531 80.9694 134.531Z" fill="#E15756"/>
<path d="M96.4775 204.997C96.1153 208.984 95.4953 212.943 94.6214 216.85C93.8267 220.029 92.9014 221.948 91.8454 221.866C89.1511 221.664 87.9264 225.623 87.2949 230.186C86.62 235.028 86.62 240.551 86.2499 242.503C85.76 245.082 82.6247 247.05 76.3596 246.472C72.6285 246.047 68.9666 245.147 65.4624 243.795C57.0038 240.714 57.2541 215.732 58.6694 197.194C59.5348 185.832 60.8357 176.885 60.8357 176.885C60.8357 176.885 58.2666 169.208 57.4447 163.947C57.281 162.987 57.1991 162.014 57.1997 161.041C57.3249 156.444 65.5831 150.568 70.6453 142.831C75.7128 135.095 82.7444 134.226 82.7444 134.226L80.3386 141.5C80.3386 141.5 84.0671 147.263 84.0944 152.748C84.1216 158.233 93.0211 162.191 96.2163 164.846C98.2248 166.515 98.1758 188.787 96.4775 204.997Z" fill="#2F2E41"/>
<path d="M103.514 136.825C103.514 136.825 104.098 137.517 106.771 137.18C109.978 136.775 114.387 137.886 115.411 140.953C117.29 146.577 122.586 169.454 122.586 169.454C122.586 169.454 124.79 195.608 125.781 201.385C126.772 207.161 126.28 212.278 127.257 215.312C128.235 218.346 117.609 209.654 113.693 210.786C109.776 211.917 107.26 197.254 107.752 192.137C108.244 187.02 108.66 181.458 107.302 176.203C105.943 170.947 108.352 157.036 108.262 153.85C108.172 150.663 99.6264 142.631 103.514 136.825Z" fill="#2F2E41"/>
<path d="M114.979 218.112C114.979 218.112 132.136 227.488 133.778 240.833C135.42 254.178 110.83 227.912 110.83 227.912L114.979 218.112Z" fill="#9F616A"/>
<path d="M124.773 208.649C124.773 208.649 130.03 235.193 138.22 233.783C146.41 232.373 133.645 207.122 133.645 207.122L124.773 208.649Z" fill="#9F616A"/>
<path d="M152.821 324.366C152.821 324.366 148.627 329.205 147.587 328.469C146.548 327.733 144.156 337.752 146.312 339.668C148.468 341.584 156.772 344.729 156.862 347.916C156.952 351.103 179.222 350.471 180.02 347.132C180.817 343.792 177.226 336.176 174.703 334.78C172.18 333.385 162.851 320.54 162.851 320.54C162.851 320.54 155.545 321.609 152.821 324.366Z" fill="#2F2E41"/>
<path opacity="0.1" d="M112.246 234.346C108.267 231.533 97.1579 230.835 87.2948 230.186C82.9676 229.908 78.8797 229.635 75.739 229.194C72.7126 228.774 69.9911 226.004 67.5743 221.877C63.9111 215.623 60.95 206.245 58.6693 197.194C59.5347 185.832 60.8357 176.885 60.8357 176.885C60.8357 176.885 58.2665 169.208 57.4446 163.947C58.024 163.139 58.7703 162.466 59.6327 161.973C70.0945 157.475 80.0827 201.742 81.3509 208.688C81.3727 208.802 81.389 208.911 81.4054 209.004C82.0204 212.581 88.6665 215.639 94.6213 216.85C98.29 217.597 101.703 217.646 103.276 216.675C107.407 214.135 120.112 224.303 121.075 224.592C122.039 224.886 117.962 238.397 112.246 234.346Z" fill="black"/>
<path d="M59.6347 159.248C59.6347 159.248 52.0309 162.844 55.3719 179.653C58.7129 196.462 65.4434 225.04 75.7365 226.47C86.0296 227.9 106.526 227.574 112.244 231.621C117.963 235.669 122.038 222.158 121.075 221.866C120.111 221.575 107.406 211.41 103.275 213.951C99.1438 216.493 82.3975 212.056 81.4063 206.28C80.4151 200.503 70.2674 154.672 59.6347 159.248Z" fill="#2F2E41"/>
<path d="M114.427 151.187L122.784 170.61C122.784 170.61 123.625 170.19 124.603 173.224C125.58 176.258 126.037 178.924 127.749 180.917C129.462 182.909 137.079 211.334 137.308 212.667C137.537 214 126.787 218.596 124.385 214.892C121.983 211.188 114.427 151.187 114.427 151.187Z" fill="#2F2E41"/>
<path d="M86.4101 121.259C87.0311 121.093 87.1224 120.267 87.1432 119.624C87.2547 116.177 89.3263 112.641 92.6195 111.638C93.8831 111.291 95.2062 111.218 96.5002 111.424C98.3474 111.671 100.131 112.267 101.756 113.181C102.614 113.664 103.455 114.245 104.428 114.393C105.07 114.49 107.852 115.301 108.492 115.415C109.899 115.665 111.206 116.926 112.556 116.457C113.847 116.008 114.133 114.333 114.164 112.964C114.235 109.846 110.409 106.995 108.327 104.675C106.748 102.915 104.369 102.102 102.044 101.68C99.3279 101.243 96.5754 101.075 93.8265 101.179C90.1054 101.245 89.6945 100.068 86.3392 101.681C82.9838 103.293 80.1654 106.503 80.0046 110.227C79.9711 111.003 80.051 111.782 79.9859 112.556C79.827 114.444 78.3387 115.66 77.8693 117.496C77.5337 118.842 77.4835 120.244 77.722 121.611C77.9605 122.978 78.4824 124.28 79.254 125.433C80.4992 127.268 80.8488 128.629 82.348 130.621C83.2481 129.687 82.7216 129.767 83.6217 128.833C84.025 128.525 84.3105 128.087 84.4305 127.593C84.5505 127.099 84.4978 126.579 84.2811 126.12L83.3254 122.385C83.0797 121.719 83.0508 120.991 83.2426 120.307C84.2672 117.771 85.3747 121.536 86.4101 121.259Z" fill="#2F2E41"/>
<path d="M469.934 168.649C466.567 142.61 462.777 116.377 458.61 90.2973C456.737 78.6083 454.794 66.9605 452.779 55.3537L452.717 55L452.36 55.0164C448.242 55.1686 444.108 55.2673 439.96 55.3126C437.71 55.3414 435.461 55.3565 433.214 55.3578C425.802 55.3743 418.407 55.2879 411.152 55.2056C403.724 55.1193 396.201 55.0329 388.642 55.0576C383.719 55.074 378.779 55.1357 373.844 55.2756C366.19 55.4936 358.536 55.8966 350.944 56.6041C343.106 57.332 335.173 58.3973 327.499 59.4296C318.761 60.6059 309.727 61.8193 300.797 62.539C284.381 63.8634 267.644 63.5714 251.458 63.2917C242.724 63.1395 233.695 62.9832 224.814 63.082C224.428 63.086 223.894 63.0531 223.278 63.0079C221.016 62.8516 217.915 62.6336 216.996 64.1266C216.367 65.1384 217.107 68.2313 218.055 71.8672C218.301 72.8049 218.515 73.6193 218.577 74.0182C219.55 80.0396 220.322 86.1761 220.88 92.255C222.022 104.745 222.3 117.299 221.714 129.827C221.058 143.747 219.325 157.596 216.532 171.248L216.441 171.688L216.885 171.742C248.346 175.489 281.231 177.71 314.634 178.343C319.623 178.438 324.32 178.491 328.784 178.495C329.215 178.499 329.642 178.499 330.065 178.499C333.584 178.499 336.959 178.471 340.215 178.417C342.305 178.38 344.348 178.332 346.345 178.273C349.979 178.162 353.474 178.014 356.878 177.825C357.153 177.812 357.424 177.796 357.695 177.78C358.66 177.726 359.619 177.667 360.573 177.603C362.113 177.504 363.639 177.396 365.151 177.278C375.65 176.463 386.281 175.147 396.645 173.823C397.807 173.671 398.965 173.521 400.119 173.375C400.899 173.276 401.679 173.173 402.463 173.074C418.083 171.067 434.047 169.097 449.999 168.706C450.615 168.69 451.235 168.674 451.851 168.665C455.054 168.608 458.254 168.624 461.451 168.715C464.136 168.789 466.819 168.922 469.499 169.114L470 169.146L469.934 168.649ZM461.028 167.876C457.945 167.793 454.861 167.782 451.777 167.843C451.063 167.851 450.352 167.867 449.638 167.888C432.959 168.32 416.288 170.467 400.012 172.56L398.275 172.782C397.836 172.84 397.392 172.898 396.953 172.955C386.47 174.3 375.708 175.637 365.09 176.459C363.882 176.554 362.671 176.64 361.448 176.723C360.187 176.809 358.918 176.887 357.633 176.961C357.362 176.978 357.087 176.994 356.812 177.01C353.391 177.196 349.873 177.344 346.218 177.451C343.832 177.525 341.385 177.579 338.876 177.615C335.62 177.664 332.241 177.685 328.718 177.673C324.279 177.664 319.607 177.615 314.651 177.52C281.432 176.891 248.723 174.687 217.427 170.977C220.175 157.425 221.883 143.681 222.535 129.868C223.124 117.301 222.845 104.709 221.697 92.181C221.139 86.0815 220.363 79.9285 219.39 73.8866C219.316 73.4465 219.11 72.6568 218.852 71.6574C218.314 69.6133 217.201 65.3523 217.694 64.5585C218.355 63.4891 221.282 63.6948 223.225 63.8305C223.857 63.8716 224.399 63.9086 224.822 63.9045C233.691 63.8058 242.716 63.9621 251.446 64.1143C267.648 64.394 284.405 64.686 300.862 63.3575C309.814 62.6377 318.859 61.4203 327.609 60.244C335.271 59.2158 343.196 58.1505 351.022 57.4225C351.622 57.3649 352.217 57.3115 352.817 57.2621C353.092 57.2374 353.367 57.2128 353.638 57.1922C360.212 56.641 366.831 56.3038 373.45 56.1105C378.541 55.9624 383.633 55.8966 388.708 55.8802C396.238 55.8555 403.74 55.9418 411.143 56.0282C418.378 56.1146 425.745 56.1968 433.131 56.1804C435.41 56.1763 437.689 56.164 439.968 56.131C444 56.0858 448.021 55.9926 452.032 55.8514C453.974 67.0386 455.849 78.2765 457.657 89.5652C461.853 115.752 465.672 142.1 469.056 168.254C466.383 168.065 463.707 167.939 461.028 167.876Z" fill="#3F3D56"/>
<path d="M282.138 175.999C280.723 165.878 281.992 155.55 283.218 145.562C283.874 140.225 284.551 134.706 284.812 129.281C285.362 117.846 284.084 106.238 282.848 95.0116C281.732 84.8789 280.578 74.4011 280.763 64.0457L281.584 64.0605C281.4 74.3634 282.551 84.8144 283.664 94.9215C284.904 106.179 286.186 117.82 285.633 129.321C285.37 134.776 284.69 140.31 284.033 145.663C282.813 155.598 281.552 165.871 282.951 175.885L282.138 175.999Z" fill="#3F3D56"/>
<path d="M356.955 178.841C353.774 138.382 352.382 97.2914 352.82 56.7102L353.641 56.719C353.204 97.2759 354.594 138.342 357.774 178.777L356.955 178.841Z" fill="#3F3D56"/>
<path d="M233.468 75.7707L233.382 74.9525C243.369 73.8955 253.416 73.5116 263.454 73.8032L263.43 74.6254C253.429 74.3346 243.419 74.7173 233.468 75.7707Z" fill="#3F3D56"/>
<path d="M303.962 72.2099L303.938 71.3877C308.853 71.2489 313.934 71.1053 318.873 70.4069C324.414 69.6232 329.912 68.1235 335.228 66.6731L335.444 67.4668C330.103 68.9238 324.58 70.4306 318.988 71.2214C314.003 71.9263 308.898 72.0705 303.962 72.2099Z" fill="#3F3D56"/>
<path d="M423.118 66.5101C422.51 66.5101 421.905 66.5051 421.304 66.5001L374.48 66.1117L374.487 65.2891L421.31 65.6775C424.532 65.7044 427.86 65.7317 431.03 64.9724L431.221 65.7725C428.558 66.3356 425.839 66.5831 423.118 66.5101Z" fill="#3F3D56"/>
<path d="M247.471 116.546H228.994C231.072 108.005 233.069 100.031 228.994 94.3362H247.471C250.949 101.747 250.949 109.151 247.471 116.546Z" fill="#E15756"/>
<path d="M333.537 157.793H315.06C313.904 147.497 316.454 139.823 315.06 135.583H333.537C332.827 142.969 332.827 150.407 333.537 157.793Z" fill="#E15756"/>
<path d="M311.937 126.417H293.459C294.152 117.877 296.386 109.903 293.459 104.207H311.937C315.415 111.611 315.415 119.014 311.937 126.417Z" fill="#E15756"/>
<path d="M330.824 107.498H349.302C350.457 98.9562 347.908 90.982 349.302 85.2877H330.824C327.346 92.691 327.346 100.094 330.824 107.498Z" fill="#FF6584"/>
<path d="M247.061 154.385H265.538C266.693 145.844 264.144 137.87 265.538 132.175H247.061C243.582 139.579 243.582 146.982 247.061 154.385Z" fill="#3F3D56"/>
</svg>
